<?xml version="1.0" ?><svg enable-background="new 0 0 512 512" id="filled_outline" version="1.1" viewBox="0 0 512 512" xml:space="preserve" xmlns="http://www.w3.org/2000/svg" xmlns:xlink="http://www.w3.org/1999/xlink"><rect fill="#A9B2E0" height="72" width="40" x="432" y="192"/><rect fill="#E6C067" height="72" width="40" x="432" y="160"/><rect fill="#E65C64" height="72" width="40" x="432" y="128"/><path d="M40,456c0,26.51,21.49,48,48,48h352V104H88c-26.51,0-48-21.49-48-48V456z" fill="#3B3F4E"/><path d="M440,104H88c-26.51,0-48-21.49-48-48v0C40,29.49,61.49,8,88,8h352l0,0  C410.564,33.231,410.564,78.769,440,104L440,104z" fill="#E6C067"/><rect fill="#4D5166" height="400" width="352" x="88" y="104"/><g><path d="M88,144h-9.373c-16.729,0-32.456-6.515-44.285-18.344c-3.124-3.124-3.124-8.189,0-11.313   c3.125-3.123,8.19-3.123,11.314,0.001C54.463,123.15,66.172,128,78.627,128H88c4.418,0,8,3.582,8,8S92.418,144,88,144z" fill="#272933"/></g><g><path d="M88,184h-9.373c-16.729,0-32.456-6.515-44.285-18.344c-3.124-3.124-3.124-8.189,0-11.313   c3.125-3.123,8.19-3.123,11.314,0.001C54.463,163.15,66.172,168,78.627,168H88c4.418,0,8,3.582,8,8S92.418,184,88,184z" fill="#272933"/></g><g><path d="M88,224h-9.373c-16.729,0-32.456-6.515-44.285-18.344c-3.124-3.124-3.124-8.189,0-11.313   c3.125-3.123,8.19-3.123,11.314,0.001C54.463,203.15,66.172,208,78.627,208H88c4.418,0,8,3.582,8,8S92.418,224,88,224z" fill="#272933"/></g><g><path d="M88,264h-9.373c-16.729,0-32.456-6.515-44.285-18.344c-3.124-3.124-3.124-8.189,0-11.313   c3.125-3.123,8.19-3.123,11.314,0.001C54.463,243.15,66.172,248,78.627,248H88c4.418,0,8,3.582,8,8S92.418,264,88,264z" fill="#272933"/></g><g><path d="M88,304h-9.373c-16.729,0-32.456-6.515-44.285-18.344c-3.124-3.124-3.124-8.189,0-11.313   c3.125-3.123,8.19-3.123,11.314,0.001C54.463,283.15,66.172,288,78.627,288H88c4.418,0,8,3.582,8,8S92.418,304,88,304z" fill="#272933"/></g><g><path d="M88,344h-9.373c-16.729,0-32.456-6.515-44.285-18.344c-3.124-3.124-3.124-8.189,0-11.313   c3.125-3.123,8.19-3.123,11.314,0.001C54.463,323.15,66.172,328,78.627,328H88c4.418,0,8,3.582,8,8S92.418,344,88,344z" fill="#272933"/></g><g><path d="M88,384h-9.373c-16.729,0-32.456-6.515-44.285-18.344c-3.124-3.124-3.124-8.189,0-11.313   c3.125-3.123,8.19-3.123,11.314,0.001C54.463,363.15,66.172,368,78.627,368H88c4.418,0,8,3.582,8,8S92.418,384,88,384z" fill="#272933"/></g><g><path d="M88,424h-9.373c-16.729,0-32.456-6.515-44.285-18.344c-3.124-3.124-3.124-8.189,0-11.313   c3.125-3.122,8.19-3.123,11.314,0.001C54.463,403.15,66.172,408,78.627,408H88c4.418,0,8,3.582,8,8S92.418,424,88,424z" fill="#272933"/></g><g><path d="M88,464h-9.373c-16.729,0-32.456-6.515-44.285-18.344c-3.124-3.124-3.124-8.189,0-11.313   c3.125-3.123,8.19-3.123,11.314,0.001C54.463,443.15,66.172,448,78.627,448H88c4.418,0,8,3.582,8,8S92.418,464,88,464z" fill="#272933"/></g><circle cx="264" cy="264" fill="#E65C64" r="128"/><path d="M417.92,56c0,8.17,1.57,16.33,4.71,24H96c-6.62,0-12.62-2.69-16.97-7.03C74.69,68.62,72,62.62,72,56  c0-13.25,10.75-24,24-24h326.63C419.49,39.67,417.92,47.83,417.92,56z" fill="#937B42"/><rect fill="#E6C067" height="32" width="240" x="144" y="440"/><path d="M352,384L352,384c17.673,0,32,14.327,32,32v0v0c0-17.673,14.327-32,32-32h0h0c-17.673,0-32-14.327-32-32v0v0  C384,369.673,369.673,384,352,384L352,384z" fill="#E6C067"/><path d="M176,384L176,384c-17.673,0-32,14.327-32,32v0v0c0-17.673-14.327-32-32-32h0h0c17.673,0,32-14.327,32-32v0v0  C144,369.673,158.327,384,176,384L176,384z" fill="#E6C067"/><g><path d="M417.92,56c0,2.67,0.17,5.35,0.51,8H104c-4.42,0-8-3.58-8-8s3.58-8,8-8h314.43   C418.09,50.65,417.92,53.33,417.92,56z" fill="#5B4C29"/></g><g><path d="M352,320H176c-2.894,0-5.562-1.562-6.978-4.087c-1.416-2.523-1.358-5.615,0.151-8.085l88-144   C258.627,161.45,261.213,160,264,160s5.373,1.45,6.826,3.828l88,144c1.509,2.47,1.567,5.562,0.151,8.085   C357.562,318.438,354.894,320,352,320z M190.265,304h147.471L264,183.342L190.265,304z" fill="#2F323E"/></g><g><path d="M264,368c-2.787,0-5.373-1.45-6.826-3.828l-88-144c-1.509-2.47-1.567-5.562-0.151-8.085   c1.416-2.524,4.084-4.087,6.978-4.087h176c2.894,0,5.562,1.562,6.978,4.087c1.416,2.523,1.358,5.615-0.151,8.085l-88,144   C269.373,366.55,266.787,368,264,368z M190.265,224L264,344.658L337.735,224H190.265z" fill="#2F323E"/></g><g><path d="M472,120h-24v-16c0-0.091-0.011-0.179-0.014-0.269c-0.005-0.148-0.009-0.296-0.022-0.443   c-0.012-0.132-0.031-0.262-0.049-0.393c-0.017-0.125-0.034-0.25-0.057-0.375c-0.026-0.141-0.059-0.278-0.093-0.416   c-0.028-0.114-0.055-0.227-0.087-0.34c-0.04-0.136-0.085-0.27-0.132-0.403c-0.04-0.114-0.079-0.227-0.124-0.34   c-0.05-0.124-0.104-0.244-0.16-0.365c-0.054-0.118-0.109-0.236-0.17-0.352c-0.057-0.11-0.119-0.216-0.181-0.323   c-0.069-0.119-0.139-0.238-0.215-0.354c-0.066-0.101-0.137-0.198-0.207-0.296c-0.081-0.113-0.162-0.225-0.25-0.334   c-0.081-0.1-0.167-0.196-0.252-0.293c-0.086-0.097-0.171-0.195-0.262-0.288c-0.105-0.107-0.215-0.208-0.326-0.309   c-0.066-0.06-0.125-0.125-0.193-0.183C432.952,87.422,425.923,72.141,425.923,56s7.029-31.422,19.283-41.926   c2.542-2.179,3.458-5.71,2.297-8.85C446.342,2.085,443.348,0,440,0H88C57.122,0,32,25.121,32,56v400c0,30.879,25.122,56,56,56h352   c4.418,0,8-3.582,8-8V272h24c4.418,0,8-3.582,8-8v-31.332c-0.011,0.002-0.023,0.003-0.034,0.005   c0.019-0.222,0.034-0.446,0.034-0.674v-32v-10.38V128C480,123.582,476.418,120,472,120z M464,136v54.919V192h-16v-56H464z    M410.372,48H104c-4.418,0-8,3.582-8,8s3.582,8,8,8h306.378c0.304,2.702,0.77,5.371,1.375,8H96c-4.267,0-8.286-1.667-11.307-4.681   C81.667,64.286,80,60.267,80,56c0-8.822,7.178-16,16-16h315.739C411.135,42.628,410.677,45.299,410.372,48z M448,208h16v16h-16V208   z M88,16h334.209c-1.742,2.564-3.3,5.24-4.688,8H96c-17.645,0-32,14.355-32,32c0,8.533,3.327,16.567,9.379,22.632   C79.432,84.673,87.466,88,96,88h321.533c1.388,2.76,2.944,5.436,4.686,8H88c-22.056,0-40-17.944-40-40S65.944,16,88,16z M80,128   h-1.373C67.244,128,56.49,123.938,48,116.517V95.154c8.406,8.586,19.55,14.474,32,16.263V128z M78.627,144H80v24h-1.373   C67.244,168,56.49,163.938,48,156.517v-20.505C57.251,141.215,67.722,144,78.627,144z M78.627,184H80v24h-1.373   C67.244,208,56.49,203.938,48,196.517v-20.505C57.251,181.215,67.722,184,78.627,184z M78.627,224H80v24h-1.373   C67.244,248,56.49,243.938,48,236.517v-20.505C57.251,221.215,67.722,224,78.627,224z M78.627,264H80v24h-1.373   C67.244,288,56.49,283.938,48,276.517v-20.505C57.251,261.215,67.722,264,78.627,264z M78.627,304H80v24h-1.373   C67.244,328,56.49,323.938,48,316.517v-20.505C57.251,301.215,67.722,304,78.627,304z M78.627,344H80v24h-1.373   C67.244,368,56.49,363.938,48,356.517v-20.505C57.251,341.215,67.722,344,78.627,344z M78.627,384H80v24h-1.373   C67.244,408,56.49,403.938,48,396.517v-20.505C57.251,381.215,67.722,384,78.627,384z M48,416.011   C57.251,421.215,67.722,424,78.627,424H80v24h-1.373C67.244,448,56.49,443.938,48,436.517V416.011z M48,456.011   C57.251,461.215,67.722,464,78.627,464H80v31.195C61.768,491.479,48.006,475.323,48,456.011z M432,496H96V112h336V496z M448,256   v-16h16v16H448z"/><path d="M257.174,364.172C258.627,366.55,261.213,368,264,368s5.373-1.45,6.826-3.828L297.82,320H352   c2.894,0,5.562-1.562,6.978-4.087c1.416-2.523,1.358-5.615-0.151-8.085L332.042,264l26.784-43.828   c1.509-2.47,1.567-5.562,0.151-8.085C357.562,209.562,354.894,208,352,208h-54.18l-26.994-44.172   C269.373,161.45,266.787,160,264,160s-5.373,1.45-6.826,3.828L230.18,208H176c-2.894,0-5.562,1.562-6.978,4.087   c-1.416,2.523-1.358,5.615,0.151,8.085L195.958,264l-26.784,43.828c-1.509,2.47-1.567,5.562-0.151,8.085   c1.416,2.524,4.084,4.087,6.978,4.087h54.18L257.174,364.172z M264,344.658L248.931,320h30.138L264,344.658z M239.153,304   l-24.444-40l24.444-40h49.693l24.444,40l-24.444,40H239.153z M337.735,304h-30.137l15.069-24.658L337.735,304z M337.735,224   l-15.069,24.658L307.598,224H337.735z M264,183.342L279.069,208h-30.138L264,183.342z M190.265,224h30.137l-15.069,24.658   L190.265,224z M190.265,304l15.069-24.658L220.402,304H190.265z"/><path d="M264,400c74.991,0,136-61.01,136-136s-61.009-136-136-136s-136,61.01-136,136S189.009,400,264,400z M264,144   c66.168,0,120,53.832,120,120s-53.832,120-120,120s-120-53.832-120-120S197.832,144,264,144z"/><path d="M384,432H144c-4.418,0-8,3.582-8,8v32c0,4.418,3.582,8,8,8h240c4.418,0,8-3.582,8-8v-32C392,435.582,388.418,432,384,432z    M376,464H152v-16h224V464z"/><path d="M392,352c0-4.418-3.582-8-8-8s-8,3.582-8,8c0,13.233-10.767,24-24,24c-4.418,0-8,3.582-8,8s3.582,8,8,8   c13.233,0,24,10.767,24,24c0,4.418,3.582,8,8,8s8-3.582,8-8c0-13.233,10.767-24,24-24c4.418,0,8-3.582,8-8s-3.582-8-8-8   C402.767,376,392,365.233,392,352z M384,392.025c-2.282-3.039-4.986-5.743-8.025-8.025c3.039-2.282,5.743-4.986,8.025-8.025   c2.282,3.039,4.986,5.743,8.025,8.025C388.986,386.282,386.282,388.986,384,392.025z"/><path d="M112,392c13.233,0,24,10.767,24,24c0,4.418,3.582,8,8,8s8-3.582,8-8c0-13.233,10.767-24,24-24c4.418,0,8-3.582,8-8   s-3.582-8-8-8c-13.233,0-24-10.767-24-24c0-4.418-3.582-8-8-8s-8,3.582-8,8c0,13.233-10.767,24-24,24c-4.418,0-8,3.582-8,8   S107.582,392,112,392z M144,375.975c2.282,3.039,4.986,5.743,8.025,8.025c-3.039,2.282-5.743,4.986-8.025,8.025   c-2.282-3.039-4.986-5.743-8.025-8.025C139.014,381.718,141.718,379.014,144,375.975z"/></g></svg>